<svg width="33" height="37" viewBox="0 0 33 37" fill="none" xmlns="http://www.w3.org/2000/svg">
<g clip-path="url(#clip0_81_264)">
<path d="M0.65625 15.6875C0.65625 11.0258 4.43203 7.25 9.09375 7.25H9.65625C10.9008 7.25 11.9062 8.25547 11.9062 9.5C11.9062 10.7445 10.9008 11.75 9.65625 11.75H9.09375C6.92109 11.75 5.15625 13.5148 5.15625 15.6875V16.25H9.65625C12.1383 16.25 14.1562 18.268 14.1562 20.75V25.25C14.1562 27.732 12.1383 29.75 9.65625 29.75H5.15625C2.67422 29.75 0.65625 27.732 0.65625 25.25V23V20.75V15.6875ZM18.6562 15.6875C18.6562 11.0258 22.432 7.25 27.0938 7.25H27.6562C28.9008 7.25 29.9062 8.25547 29.9062 9.5C29.9062 10.7445 28.9008 11.75 27.6562 11.75H27.0938C24.9211 11.75 23.1562 13.5148 23.1562 15.6875V16.25H27.6562C30.1383 16.25 32.1562 18.268 32.1562 20.75V25.25C32.1562 27.732 30.1383 29.75 27.6562 29.75H23.1562C20.6742 29.75 18.6562 27.732 18.6562 25.25V23V20.75V15.6875Z" fill="#3B82F6"/>
</g>
<defs>
<clipPath id="clip0_81_264">
<path d="M0.65625 0.5H32.1562V36.5H0.65625V0.5Z" fill="white"/>
</clipPath>
</defs>
</svg>
