<svg width="32" height="37" viewBox="0 0 32 37" fill="none" xmlns="http://www.w3.org/2000/svg">
<g clip-path="url(#clip0_81_243)">
<path d="M11.2008 0.87951C11.7492 0.366229 12.6 0.37326 13.1484 0.886542C15.0891 2.70764 16.9102 4.66935 18.6117 6.79279C19.3852 5.78029 20.2641 4.67639 21.2133 3.77639C21.7688 3.25607 22.6266 3.25607 23.182 3.78342C25.6148 6.10373 27.675 9.16935 29.1234 12.0803C30.5508 14.949 31.5 17.8811 31.5 19.9483C31.5 28.9201 24.4828 36.4998 15.75 36.4998C6.91875 36.4998 0 28.9131 0 19.9412C0 17.2412 1.25156 13.9436 3.19219 10.6811C5.15391 7.36935 7.92422 3.91701 11.2008 0.87951ZM15.8695 29.7498C17.6484 29.7498 19.2234 29.2576 20.707 28.2733C23.6672 26.2061 24.4617 22.0717 22.6828 18.8233C22.3664 18.1904 21.5578 18.1483 21.1008 18.6826L19.3289 20.7428C18.8648 21.2772 18.0281 21.2631 17.5922 20.7076C16.432 19.2311 14.3578 16.5944 13.1766 15.0967C12.7336 14.5342 11.8898 14.5272 11.4398 15.0897C9.06328 18.0779 7.86797 19.9623 7.86797 22.0787C7.875 26.8951 11.4328 29.7498 15.8695 29.7498Z" fill="#F97316"/>
</g>
<defs>
<clipPath id="clip0_81_243">
<path d="M0 0.5H31.5V36.5H0V0.5Z" fill="white"/>
</clipPath>
</defs>
</svg>
